Jump_normalized_pl05_filtered_grf
version=1
nRows=15
nColumns=37
inDegrees=yes
endheader
time		1_ground_force_vx		1_ground_force_vy		1_ground_force_vz		1_ground_force_px		1_ground_force_py		1_ground_force_pz		1_ground_torque_x		1_ground_torque_y		1_ground_torque_z		2_ground_force_vx		2_ground_force_vy		2_ground_force_vz		2_ground_force_px		2_ground_force_py		2_ground_force_pz		2_ground_torque_x		2_ground_torque_y		2_ground_torque_z		3_ground_force_vx		3_ground_force_vy		3_ground_force_vz		3_ground_force_px		3_ground_force_py		3_ground_force_pz		3_ground_torque_x		3_ground_torque_y		3_ground_torque_z		4_ground_force_vx		4_ground_force_vy		4_ground_force_vz		4_ground_force_px		4_ground_force_py		4_ground_force_pz		4_ground_torque_x		4_ground_torque_y		4_ground_torque_z		
0.368667		-0.000000		0.000000		0.000000		0.142679		0.000000		0.180650		0.000000		0.000000		-0.000000		0.000000		0.000000		0.000000		-0.199375		0.000000		0.211348		0.000000		-0.000000		0.000000		-100.669292		677.773800		-8.459091		0.412704		1.261592		1.876761		4.445188		-29.928012		0.373529		137.918513		655.270948		-27.491562		-0.355113		1.255375		1.903705		7.079291		33.634740		-1.411132		
0.371596		-0.000000		-0.000000		-0.000000		0.142679		0.000000		0.180650		-0.000000		-0.000000		0.000000		0.000000		-0.000000		0.000000		-0.199375		0.000000		0.211348		-0.000000		-0.000000		-0.000000		-100.997202		678.874952		-12.982232		0.412724		1.261602		1.876873		4.479655		-30.110990		0.575821		137.713041		651.226816		-31.068035		-0.355104		1.255397		1.903764		7.089471		33.525173		-1.599386		
0.374525		-0.000000		-0.000000		-0.000000		0.142679		0.000000		0.180650		-0.000000		-0.000000		0.000000		0.000000		-0.000000		-0.000000		-0.199375		0.000000		0.211348		-0.000000		0.000000		-0.000000		-101.303826		679.539056		-17.594621		0.412745		1.261613		1.876990		4.511632		-30.263713		0.783589		137.294534		646.532216		-34.613536		-0.355093		1.255418		1.903824		7.089249		33.383907		-1.787282		
0.377455		-0.000000		-0.000000		-0.000000		0.142679		0.000000		0.180650		-0.000000		-0.000000		0.000000		0.000000		-0.000000		-0.000000		-0.199375		0.000000		0.211348		-0.000000		0.000000		-0.000000		-101.567932		679.686691		-22.304500		0.412767		1.261627		1.877113		4.539923		-30.380903		0.996977		136.666824		641.196305		-38.142004		-0.355081		1.255440		1.903885		7.078559		33.210299		-1.975539		
0.380384		-0.000000		-0.000000		-0.000000		0.142679		0.000000		0.180650		-0.000000		-0.000000		0.000000		-0.000000		-0.000000		-0.000000		-0.199375		0.000000		0.211348		-0.000000		0.000000		-0.000000		-101.768606		679.227944		-27.120857		0.412788		1.261641		1.877241		4.563389		-30.457143		1.216125		135.837203		635.240462		-41.668829		-0.355067		1.255460		1.903946		7.057467		33.004126		-2.164921		
0.383313		0.000000		-0.000000		-0.000000		0.142679		0.000000		0.180650		-0.000000		-0.000000		0.000000		-0.000000		-0.000000		-0.000000		-0.199375		0.000000		0.211348		-0.000000		0.000000		-0.000000		-101.885112		678.066235		-32.049491		0.412807		1.261656		1.877371		4.580943		-30.487105		1.441008		134.815414		628.692404		-45.204394		-0.355053		1.255480		1.904010		7.026148		32.765435		-2.355913		
0.386242		0.000000		-0.000000		-0.000000		0.142679		0.000000		0.180650		-0.000000		-0.000000		0.000000		-0.000000		-0.000000		-0.000000		-0.199375		0.000000		0.211348		-0.000000		0.000000		-0.000000		-101.896796		676.102665		-37.094495		0.412823		1.261672		1.877502		4.591563		-30.465805		1.671515		133.612512		621.581540		-48.755671		-0.355038		1.255498		1.904075		6.984869		32.494452		-2.548808		
0.389172		0.000000		-0.000000		-0.000000		0.142679		0.000000		0.180650		-0.000000		-0.000000		0.000000		-0.000000		-0.000000		-0.000000		-0.199375		0.000000		0.211348		-0.000000		0.000000		-0.000000		-101.784082		673.243415		-42.256954		0.412838		1.261690		1.877632		4.594350		-30.388997		1.907405		132.240572		613.937454		-52.325358		-0.355021		1.255515		1.904142		6.933995		32.191626		-2.743669		
0.392101		0.000000		-0.000000		-0.000000		0.142679		0.000000		0.180650		-0.000000		-0.000000		0.000000		-0.000000		-0.000000		-0.000000		-0.199375		0.000000		0.211348		-0.000000		0.000000		-0.000000		-101.530418		669.407111		-47.534638		0.412847		1.261709		1.877756		4.588614		-30.253504		2.148304		130.712211		605.788771		-55.912505		-0.355004		1.255532		1.904209		6.873977		31.857605		-2.940366		
0.395030		0.000000		0.000000		0.000000		0.142679		0.000000		0.180650		0.000000		-0.000000		-0.000000		-0.000000		0.000000		-0.000000		-0.199375		0.000000		0.211348		-0.000000		0.000000		0.000000		-101.125009		664.532743		-52.922514		0.412855		1.261728		1.877876		4.573989		-30.057505		2.393740		129.040317		597.163140		-59.514455		-0.354986		1.255546		1.904279		6.805325		31.493173		-3.138672		
0.397960		0.000000		0.000000		0.000000		0.142679		0.000000		0.180650		0.000000		0.000000		-0.000000		-0.000000		0.000000		0.000000		-0.199375		0.000000		0.211348		0.000000		0.000000		0.000000		-100.565691		658.584836		-58.416566		0.412861		1.261750		1.877988		4.550546		-29.800624		2.643320		127.237612		588.086897		-63.129875		-0.354966		1.255560		1.904348		6.728560		31.099120		-3.338426		
0.400889		0.000000		0.000000		0.000000		0.142679		0.000000		0.180650		0.000000		0.000000		-0.000000		-0.000000		0.000000		0.000000		-0.199375		0.000000		0.211348		0.000000		-0.000000		0.000000		-99.860035		651.567840		-64.002094		0.412864		1.261772		1.878089		4.518824		-29.484474		2.896196		125.318118		578.588924		-66.754909		-0.354944		1.255571		1.904417		6.644286		30.676411		-3.539305		
0.403818		0.000000		0.000000		0.000000		0.142679		0.000000		0.180650		0.000000		0.000000		-0.000000		0.000000		0.000000		0.000000		-0.199375		0.000000		0.211348		0.000000		-0.000000		0.000000		-99.026579		643.527994		-69.666364		0.412867		1.261795		1.878183		4.479857		-29.112522		3.151631		123.295461		568.700484		-70.389505		-0.354919		1.255578		1.904485		6.553102		30.226192		-3.741177		
0.406747		-0.000000		0.000000		0.000000		0.142679		0.000000		0.180650		0.000000		0.000000		-0.000000		0.000000		0.000000		0.000000		-0.199375		0.000000		0.211348		0.000000		-0.000000		0.000000		-98.091920		634.551468		-75.395027		0.412869		1.261818		1.878266		4.435003		-28.689804		3.408813		121.181604		558.455929		-74.034227		-0.354891		1.255580		1.904551		6.455554		29.749914		-3.943936		
0.409677		-0.000000		0.000000		0.000000		0.142679		0.000000		0.180650		0.000000		0.000000		-0.000000		0.000000		0.000000		0.000000		-0.199375		0.000000		0.211348		0.000000		-0.000000		0.000000		-97.087020		624.762621		-81.171668		0.412873		1.261842		1.878341		4.385764		-28.222739		3.666809		118.985042		547.895718		-77.689045		-0.354858		1.255579		1.904616		6.352069		29.249652		-4.147468		
